# xmcd
#
# Track frame offsets: 
#        150
#        19602
#        40474
#
# Disc length: 796 seconds
#
# Revision: 1
# Processed by: cddbd v1.5.2PL0 Copyright (c) Steve Scherf et al.
# Submitted via: ExactAudioCopy v1.3
#
DISCID=1c031a03
DTITLE=TK from 凛として時雨 - P.S. RED I
DYEAR=2019
DGENRE=Rock
TTITLE0=P.S. RED I
TTITLE1=moving on
TTITLE2=P.S. RED I (Instrumental)
EXTD=YEAR: 1993
EXTT0=
EXTT1=
EXTT2=
PLAYORDER=
